<svg width="60" height="60" viewBox="0 0 60 60" fill="none" xmlns="http://www.w3.org/2000/svg">
<rect width="60" height="60" rx="5" fill="#0E3243"/>
<path d="M44.7472 15H15.2528C14.0107 15 13 16.0036 13 17.2369V37.7874C13 39.0207 14.0107 40.0243 15.2528 40.0243H22.8662L21.2343 42.8049C21.0879 43.0541 21.0864 43.3506 21.2294 43.5979C21.3728 43.846 21.64 44 21.9261 44H38.0739C38.36 44 38.6268 43.846 38.7706 43.5979C38.9136 43.3506 38.9118 43.0541 38.7657 42.8049L37.1338 40.0243H44.7472C45.9893 40.0243 47 39.0211 47 37.7874V17.2365C46.9996 16.0032 45.9893 15 44.7472 15ZM15.2528 16.059H44.7472C45.4013 16.059 45.9331 16.5874 45.9331 17.2365V36.1063H14.0669V17.2365C14.0669 16.5874 14.5987 16.059 15.2528 16.059ZM37.6108 42.9406H22.3892L24.1011 40.0239H35.8989L37.6108 42.9406ZM44.7472 38.9649H15.2528C14.5987 38.9649 14.0669 38.4365 14.0669 37.7874V37.1657H45.9331V37.7874C45.9331 38.4365 45.4013 38.9649 44.7472 38.9649ZM22.5598 28.0034C22.7522 28.6581 23.3368 29.1483 24.0434 29.2045V33.5853C24.0434 34.1819 24.5321 34.6672 25.1329 34.6672H26.2893C26.8902 34.6672 27.3789 34.1819 27.3789 33.5853V29.2105H27.4072L34.1994 31.3443C34.4198 32.1174 35.1362 32.6859 35.9846 32.6859C37.0077 32.6859 37.8399 31.8596 37.8399 30.8437V28.087C39.2246 27.7763 40.2485 26.5457 40.2485 25.092C40.2485 23.6365 39.2156 22.4088 37.8399 22.0974V19.3404C37.8399 18.3244 37.0077 17.4981 35.9846 17.4981C35.1362 17.4981 34.4198 18.0666 34.1994 18.8397L27.4072 20.9731H24.1796C23.4131 20.9731 22.7647 21.4835 22.5605 22.1798C21.0011 22.2465 19.753 23.5267 19.753 25.0916C19.7522 26.6566 21.0003 27.9367 22.5598 28.0034ZM26.312 33.5853C26.312 33.597 26.301 33.6078 26.2893 33.6078H25.1329C25.1212 33.6078 25.1103 33.597 25.1103 33.5853V29.2105H26.312V33.5853ZM34.1285 30.2111L28.0224 28.2927V21.8905L34.1285 19.9726V30.2111ZM39.1812 25.0916C39.1812 25.9596 38.6245 26.7064 37.8392 26.9864V23.1988C38.62 23.4791 39.1812 24.2233 39.1812 25.0916ZM35.9838 18.5571C36.4186 18.5571 36.7726 18.9083 36.7726 19.3404V30.8433C36.7726 31.275 36.419 31.6265 35.9838 31.6265C35.549 31.6265 35.195 31.2754 35.195 30.8433V19.3404C35.1954 18.9086 35.549 18.5571 35.9838 18.5571ZM23.5588 22.6483C23.5588 22.3087 23.8369 22.0326 24.1788 22.0326H26.9558V28.1515H24.1788C23.8369 28.1515 23.5588 27.8753 23.5588 27.5358V22.6483ZM22.4922 23.246V26.9373C21.5532 26.8398 20.8188 26.0495 20.8188 25.0916C20.8188 24.1341 21.5532 23.3434 22.4922 23.246Z" fill="#C0E8F7" stroke="#C0E8F7" stroke-width="0.5"/>
</svg>
