<svg width="60" height="60" viewBox="0 0 60 60" fill="none" xmlns="http://www.w3.org/2000/svg">
<rect width="60" height="60" rx="5" fill="#0E3243"/>
<path d="M46.6561 19.9149C46.8459 19.9149 47 19.7609 47 19.571V14.0189C47 13.8291 46.8459 13.675 46.6561 13.675H41.104C40.9142 13.675 40.7601 13.8291 40.7601 14.0189V16.4508H19.2394V14.0189C19.2394 13.8291 19.0853 13.675 18.8955 13.675H13.3434C13.1536 13.675 12.9995 13.8291 12.9995 14.0189V19.571C12.9995 19.7609 13.1536 19.9149 13.3434 19.9149H15.7759V40.0849H13.3434C13.1536 40.0849 12.9995 40.239 12.9995 40.4288V45.9809C12.9995 46.1707 13.1536 46.3248 13.3434 46.3248H18.8955C19.0853 46.3248 19.2394 46.1707 19.2394 45.9809V43.5484H40.7601V45.9809C40.7601 46.1707 40.9142 46.3248 41.104 46.3248H46.6561C46.8459 46.3248 47 46.1707 47 45.9809V40.4288C47 40.239 46.8459 40.0849 46.6561 40.0849H44.2243V19.9149H46.6561ZM41.4479 14.3628H46.3122V19.2272H41.4479V14.3628ZM13.6873 14.3628H18.5516V19.2272H13.6873V14.3628ZM18.5516 45.6371H13.6873V40.7727H18.5516V45.6371ZM46.3122 45.6371H41.4479V40.7727H46.3122V45.6371ZM43.5365 40.0849H41.104C40.9142 40.0849 40.7601 40.239 40.7601 40.4288V42.8607H19.2394V40.4288C19.2394 40.239 19.0853 40.0849 18.8955 40.0849H16.4637V19.9149H18.8955C19.0853 19.9149 19.2394 19.7609 19.2394 19.571V17.1385H40.7601V19.571C40.7601 19.7609 40.9142 19.9149 41.104 19.9149H43.5365V40.0849Z" fill="#C0E8F7" stroke="#C0E8F7"/>
<path d="M36.4527 23.2037H23.548C23.3582 23.2037 23.2041 23.3578 23.2041 23.5476V36.4524C23.2041 36.6422 23.3582 36.7962 23.548 36.7962H36.4527C36.6425 36.7962 36.7966 36.6422 36.7966 36.4524V23.5476C36.7966 23.3578 36.6425 23.2037 36.4527 23.2037ZM36.1088 36.1085H23.8918V23.8915H36.1088V36.1085Z" fill="#C0E8F7" stroke="#C0E8F7"/>
<path d="M26.6739 30.3438H29.656V33.3265C29.656 33.5163 29.81 33.6704 29.9999 33.6704C30.1897 33.6704 30.3437 33.5163 30.3437 33.3265V30.3438H33.3265C33.5163 30.3438 33.6703 30.1898 33.6703 29.9999C33.6703 29.8101 33.5163 29.6561 33.3265 29.6561H30.3437V26.6733C30.3437 26.4835 30.1897 26.3295 29.9999 26.3295C29.81 26.3295 29.656 26.4835 29.656 26.6733V29.6561H26.6739C26.4841 29.6561 26.3301 29.8101 26.3301 29.9999C26.3301 30.1898 26.4834 30.3438 26.6739 30.3438Z" fill="#C0E8F7" stroke="#C0E8F7"/>
</svg>
