<?xml version="1.0" encoding="UTF-8"?>
<svg id="Layer_2" data-name="Layer 2" xmlns="http://www.w3.org/2000/svg" viewBox="0 0 762.29 180">
  <defs>
    <style>
      .cls-1 {
        fill-rule: evenodd;
      }

      .cls-1, .cls-2 {
        fill: #6fcfee;
        stroke-width: 0px;
      }
    </style>
  </defs>
  <g id="Layer_1-2" data-name="Layer 1">
    <g>
      <path class="cls-1" d="M0,108h90c9.76,0,18-8.24,18-18s-8.24-18-18-18h-54v-36h54c29.63,0,54,24.37,54,54,0,26.96-20.18,49.58-46.15,53.42l28.75,28.75c31.39-14.09,53.4-45.69,53.4-82.18C180,40.5,139.5,0,90,0H0v108ZM0,180h83.08c-.09-.24-.18-.47-.27-.71-5.69-14.61-17.37-26.28-31.97-31.97-4.12-1.6-8.47-2.73-12.99-3.32H0v36Z"/>
      <g>
        <path class="cls-2" d="M266.43,119.7v-7.17h-.18c-3.91,5.45-10.44,8.45-17.8,8.45-14.62,0-26.15-11.08-26.15-25.88s10.9-27.06,25.88-27.06c6.81,0,13.26,2.45,17.35,7.54h.18v-23.07h9.44v67.2h-8.72ZM248.9,76.66c-9.63,0-17.16,8.08-17.16,17.98s7.72,17.71,17.16,17.71,17.53-7.81,17.53-17.35c0-10.26-6.9-18.34-17.53-18.34Z"/>
        <path class="cls-2" d="M286.43,63.58v-11.08h9.44v11.08h-9.44ZM286.43,119.7v-50.31h9.44v50.31h-9.44Z"/>
        <path class="cls-2" d="M360.04,98.63c2.18,8.36,8.81,13.71,16.53,13.71,5.9,0,11.44-3.09,14.35-8.45h9.44c-3.91,10.35-13.35,17.07-24.16,17.07-14.17,0-25.61-12.53-25.61-25.97,0-15.89,11.99-26.97,25.34-26.97,14.8,0,26.06,11.44,26.06,25.88,0,1.54,0,3-.27,4.72h-41.68ZM392.55,91.37c-.73-8.54-8.26-14.71-16.35-14.71s-15.44,6.08-16.17,14.71h32.51Z"/>
        <path class="cls-2" d="M410.45,119.7v-50.31h8.81v4.54h.18c2.27-3.36,6.18-5.54,12.8-5.9v9.72c-8.17.27-12.35,5.27-12.35,13.71v28.24h-9.44Z"/>
        <path class="cls-2" d="M443.3,98.63c2.18,8.36,8.81,13.71,16.53,13.71,5.9,0,11.44-3.09,14.35-8.45h9.44c-3.91,10.35-13.35,17.07-24.16,17.07-14.17,0-25.61-12.53-25.61-25.97,0-15.89,11.99-26.97,25.34-26.97,14.8,0,26.06,11.44,26.06,25.88,0,1.54,0,3-.27,4.72h-41.68ZM475.81,91.37c-.73-8.54-8.26-14.71-16.35-14.71s-15.44,6.08-16.17,14.71h32.51Z"/>
        <path class="cls-2" d="M534.71,119.7v-7.81h-.18c-3.54,5.99-9.9,9.08-17.07,9.08-14.71,0-26.7-11.08-26.7-25.61,0-16.07,11.53-27.34,26.34-27.34,7.36,0,13.53,2.72,17.44,8.45h.18v-7.08h9.44v50.31h-9.44ZM534.89,94.64c0-9.81-7.08-17.98-17.53-17.98-9.44,0-17.16,8.08-17.16,17.98s7.72,17.71,17.16,17.71,17.53-8.17,17.53-17.71Z"/>
        <path class="cls-2" d="M603.23,103.08c-4,11.35-13.62,17.89-24.79,17.89-14.44,0-25.79-11.62-25.79-25.97,0-15.17,10.99-26.97,25.7-26.97,11.44,0,21.89,7.17,24.88,18.07h-10.44c-2.82-5.9-7.36-9.44-14.17-9.44-9.9,0-16.53,7.54-16.53,17.8s6.81,17.89,16.35,17.89c6.45,0,11.62-3.45,14.26-9.26h10.53Z"/>
        <path class="cls-2" d="M611.89,119.7v-41.68h-6.81v-8.63h6.81v-16.89h9.44v16.89h8.26v8.63h-8.26v41.68h-9.44Z"/>
        <path class="cls-2" d="M635.2,63.58v-11.08h9.44v11.08h-9.44ZM635.2,119.7v-50.31h9.44v50.31h-9.44Z"/>
        <path class="cls-2" d="M679.45,68.03c-.46,0-.92,0-1.37.04v8.59c.11,0,.24,0,.36,0,8.35,0,12.54,5,12.54,15.63v27.42h9.44v-30.15c0-13.9-8.9-21.52-20.98-21.52Z"/>
        <path class="cls-2" d="M752.67,113.07c-3.91,5.27-10.17,7.9-17.35,7.9-14.44,0-26.88-12.44-26.88-26.06,0-15.17,11.81-26.88,26.97-26.88,6.54,0,13.44,2.72,17.44,7.17v-5.81h9.44v43.68c0,16.35-10.08,26.43-27.15,26.43-11.53,0-20.61-6.08-24.88-15.89h10.53c3.54,4.99,8.26,7.26,14.44,7.26,11.53,0,17.62-6.27,17.62-17.8h-.18ZM752.85,94.55c0-11.81-8.99-17.89-17.71-17.89-9.35,0-17.25,8.08-17.25,17.89s7.99,17.8,17.35,17.8c10.99,0,17.62-9.63,17.62-17.8Z"/>
        <path class="cls-2" d="M679.45,68.03c-.46,0-.92,0-1.37.04-.45-.03-.91-.04-1.37-.04-12.08,0-20.98,7.63-20.98,21.52v30.15h9.44v-27.42c0-10.63,4.19-15.63,12.54-15.63.12,0,.25,0,.36,0,.11,0,.24,0,.36,0,8.35,0,12.54,5,12.54,15.63v27.42h9.44v-30.15c0-13.9-8.9-21.52-20.98-21.52Z"/>
        <g>
          <polygon class="cls-2" points="339.95 119.7 339.95 87.45 330.51 78.02 330.51 119.7 339.95 119.7"/>
          <polygon class="cls-2" points="317.7 119.7 317.7 87.45 308.26 78.02 308.26 119.7 317.7 119.7"/>
          <path class="cls-2" d="M348.77,61.13v-8.63h-2.18c-10.27,0-16.08,5.91-16.08,14.62v2.27h-12.81v-2.27c0-4.27,3.36-5.99,8.81-5.99v-8.63h-2.18c-10.27,0-16.08,5.91-16.08,14.62v2.27h-8.81v8.63h49.32v-8.63h-8.81v-2.27c0-4.27,3.36-5.99,8.81-5.99Z"/>
        </g>
      </g>
    </g>
  </g>
</svg>