<svg width="60" height="60" viewBox="0 0 60 60" fill="none" xmlns="http://www.w3.org/2000/svg">
<rect width="60" height="60" rx="5" fill="#0E3243"/>
<path fill-rule="evenodd" clip-rule="evenodd" d="M13.7175 11.9998C12.7808 11.9998 11.9995 12.7772 11.9995 13.7151V21.7089C11.9995 22.6468 12.7808 23.4238 13.7175 23.4238H46.2819C47.2171 23.4238 48 22.6644 48 21.7089V13.7151C48 12.7596 47.2171 11.9998 46.2819 11.9998H13.7175ZM13.7175 13.6285H46.2819C46.315 13.6285 46.3712 13.6734 46.3712 13.7151V21.7089C46.3712 21.7506 46.315 21.795 46.2819 21.795H13.7175C13.6537 21.795 13.6282 21.7682 13.6282 21.7089V13.7151C13.6282 13.6558 13.6537 13.6285 13.7175 13.6285Z" fill="#C0E8F7"/>
<path fill-rule="evenodd" clip-rule="evenodd" d="M13.5399 36.5601C12.6818 36.5601 11.9995 37.2582 11.9995 38.0982V46.4622C11.9995 47.3001 12.7035 48.0004 13.5399 48.0004H46.4596C47.296 48.0004 48 47.3001 48 46.4622V38.0982C48 37.2582 47.3176 36.5601 46.4596 36.5601H13.5399ZM13.6282 38.1893H46.3712V46.3715H13.6282V38.1893Z" fill="#C0E8F7"/>
<path fill-rule="evenodd" clip-rule="evenodd" d="M13.5561 24.3361C12.698 24.3361 11.9995 25.0307 11.9995 25.8905V34.2062C11.9995 35.0659 12.698 35.7606 13.5561 35.7606H46.4271C47.2838 35.7606 48 35.0659 48 34.2062V25.8905C48 25.0307 47.2838 24.3361 46.4271 24.3361H13.5561ZM13.6282 25.9653H46.3712V34.1313H13.6282V25.9653Z" fill="#C0E8F7"/>
<path fill-rule="evenodd" clip-rule="evenodd" d="M42.0055 15.6185C40.865 15.6185 39.9163 16.5626 39.9163 17.7037C39.9163 18.8447 40.8527 19.805 42.0055 19.805C43.1583 19.805 44.0947 18.8447 44.0947 17.7037C44.0947 16.5626 43.146 15.6185 42.0055 15.6185ZM42.0055 17.2478C42.285 17.2478 42.4659 17.4293 42.4659 17.7037C42.4659 17.978 42.2727 18.1758 42.0055 18.1758C41.7383 18.1758 41.5451 17.978 41.5451 17.7037C41.5451 17.4293 41.726 17.2478 42.0055 17.2478Z" fill="#C0E8F7"/>
<path fill-rule="evenodd" clip-rule="evenodd" d="M42.0055 27.9552C40.8527 27.9552 39.9163 28.915 39.9163 30.0561C39.9163 31.1911 40.8527 32.1413 42.0055 32.1413C43.1583 32.1413 44.0947 31.1911 44.0947 30.0561C44.0947 28.915 43.1583 27.9552 42.0055 27.9552ZM42.0055 29.584C42.2727 29.584 42.4659 29.7817 42.4659 30.0561C42.4659 30.3043 42.2727 30.5125 42.0055 30.5125C41.7383 30.5125 41.5451 30.3043 41.5451 30.0561C41.5451 29.7817 41.7383 29.584 42.0055 29.584Z" fill="#C0E8F7"/>
<path fill-rule="evenodd" clip-rule="evenodd" d="M42.0055 40.1951C40.865 40.1951 39.9163 41.1392 39.9163 42.2802C39.9163 43.4212 40.8527 44.3815 42.0055 44.3815C43.1583 44.3815 44.0947 43.4212 44.0947 42.2802C44.0947 41.1392 43.146 40.1951 42.0055 40.1951ZM42.0055 41.8243C42.285 41.8243 42.4659 42.0059 42.4659 42.2802C42.4659 42.5545 42.2727 42.7523 42.0055 42.7523C41.7383 42.7523 41.5451 42.5545 41.5451 42.2802C41.5451 42.0059 41.726 41.8243 42.0055 41.8243Z" fill="#C0E8F7"/>
</svg>
